<?xml version="1.0" encoding="UTF-8" standalone="no"?>
<!-- Created with Inkscape (http://www.inkscape.org/) -->

<svg
   xmlns:dc="http://purl.org/dc/elements/1.1/"
   xmlns:cc="http://creativecommons.org/ns#"
   xmlns:rdf="http://www.w3.org/1999/02/22-rdf-syntax-ns#"
   xmlns:svg="http://www.w3.org/2000/svg"
   xmlns="http://www.w3.org/2000/svg"
   xmlns:sodipodi="http://sodipodi.sourceforge.net/DTD/sodipodi-0.dtd"
   xmlns:inkscape="http://www.inkscape.org/namespaces/inkscape"
   width="500"
   height="500"
   viewBox="0 0 132.29166 132.29167"
   version="1.1"
   id="svg8"
   inkscape:version="0.92.4 (5da689c313, 2019-01-14)"
   sodipodi:docname="Paiement-sécurisé.svg"
   inkscape:export-filename="/home/urai/Documents/Business/Boutiques/Catheaven/Images/Logos/Trust-Badges/Paiement-sécurisé.png"
   inkscape:export-xdpi="300.09598"
   inkscape:export-ydpi="300.09598">
  <defs
     id="defs2" />
  <sodipodi:namedview
     id="base"
     pagecolor="#ffffff"
     bordercolor="#666666"
     borderopacity="1.0"
     inkscape:pageopacity="0.0"
     inkscape:pageshadow="2"
     inkscape:zoom="1.4142136"
     inkscape:cx="197.78566"
     inkscape:cy="258.96725"
     inkscape:document-units="mm"
     inkscape:current-layer="g932"
     showgrid="false"
     units="px"
     inkscape:window-width="1920"
     inkscape:window-height="1015"
     inkscape:window-x="0"
     inkscape:window-y="0"
     inkscape:window-maximized="1"
     showguides="false" />
  <metadata
     id="metadata5">
    <rdf:RDF>
      <cc:Work
         rdf:about="">
        <dc:format>image/svg+xml</dc:format>
        <dc:type
           rdf:resource="http://purl.org/dc/dcmitype/StillImage" />
        <dc:title></dc:title>
      </cc:Work>
    </rdf:RDF>
  </metadata>
  <g
     inkscape:label="Calque 1"
     inkscape:groupmode="layer"
     id="layer1"
     transform="translate(0,-164.70832)">
    <g
       id="g978">
      <g
         transform="translate(-7.0981587e-8,-26.151722)"
         id="g942">
        <g
           id="g905"
           transform="matrix(1.0000001,0,0,0.82233876,-3.1021245e-5,41.013857)">
          <path
             style="opacity:1;fill:#000000;fill-opacity:1;fill-rule:nonzero;stroke:none;stroke-width:0.03464104;stroke-linecap:round;stroke-linejoin:round;stroke-miterlimit:4;stroke-dasharray:none;stroke-opacity:1;paint-order:stroke fill markers"
             d="m 0.26458487,222.91678 c 43.92083213,0 87.84166313,0 131.76249513,0 0,2.64583 0,5.29167 0,7.9375 -43.920832,0 -87.841663,0 -131.76249513,0 0,-2.64583 0,-5.29167 0,-7.9375 z"
             id="rect834-3"
             inkscape:connector-curvature="0" />
          <path
             style="opacity:1;fill:#000000;fill-opacity:1;fill-rule:nonzero;stroke:#000000;stroke-width:16.26125145;stroke-linecap:round;stroke-linejoin:round;stroke-miterlimit:4;stroke-dasharray:none;stroke-opacity:1;paint-order:normal"
             d="m 8.3952093,222.50125 c 38.5004337,0 77.0008667,0 115.5013007,0 -1.70323,0.51977 -4.37271,0.0733 -6.44671,0.22229 -36.351527,0 -72.703059,0 -109.0545907,0 z"
             id="rect901"
             inkscape:connector-curvature="0" />
        </g>
        <g
           id="g932"
           transform="matrix(1,0,0,1.0649608,-2.4858134e-5,-19.580733)">
          <path
             style="opacity:1;fill:#000000;fill-opacity:1;fill-rule:nonzero;stroke:none;stroke-width:0.07944807;stroke-linecap:round;stroke-linejoin:round;stroke-miterlimit:4;stroke-dasharray:none;stroke-opacity:1;paint-order:stroke fill markers"
             d="m 0.26458487,247.31149 c 43.92083213,0 87.84166313,0 131.76249513,0 0,13.91708 0,27.83415 0,41.75123 -43.920832,0 -87.841663,0 -131.76249513,0 0,-13.91708 0,-27.83415 0,-41.75123 z"
             id="rect834"
             inkscape:connector-curvature="0" />
          <path
             style="opacity:1;fill:#000000;fill-opacity:1;fill-rule:nonzero;stroke:#000000;stroke-width:16.26125145;stroke-linecap:round;stroke-linejoin:round;stroke-miterlimit:4;stroke-dasharray:none;stroke-opacity:1;paint-order:normal"
             d="m 8.3952093,288.56668 c 38.5004337,0 77.0008667,0 115.5013007,0 -1.34417,0.51886 -3.65209,0.074 -5.3668,0.22229 -36.7115,0 -73.423,0 -110.1345007,0 z"
             id="rect901-5"
             inkscape:connector-curvature="0" />
        </g>
      </g>
      <path
         style="opacity:1;fill:#000000;fill-opacity:1;fill-rule:nonzero;stroke:#fffffc;stroke-width:2.96389127;stroke-linecap:round;stroke-linejoin:round;stroke-miterlimit:4;stroke-dasharray:none;stroke-opacity:1;paint-order:normal"
         d="m 12.308328,259.64111 c 35.891671,0 71.783341,0 107.675012,0 0.84994,2.75405 -1.35043,2.4578 -3.38456,2.32778 -34.763485,0 -69.526968,0 -104.290452,0 0,-0.77593 0,-1.55185 0,-2.32778 z"
         id="rect948"
         inkscape:connector-curvature="0" />
      <g
         id="g839">
        <g
           id="g954"
           transform="translate(0,2.6458276)">
          <path
             style="opacity:1;fill:#000000;fill-opacity:1;fill-rule:nonzero;stroke:#fffffc;stroke-width:2.71722436;stroke-linecap:round;stroke-linejoin:round;stroke-miterlimit:4;stroke-dasharray:none;stroke-opacity:1;paint-order:normal"
             d="m 119.02681,230.85416 c 0.4739,6.20552 -5.17572,13.97498 -11.95081,11.34037 -9.096583,-4.04256 -8.632864,-20.19806 1.15819,-23.03821 6.59975,-1.39045 11.01191,5.9246 10.79262,11.69784 z"
             id="path950"
             inkscape:connector-curvature="0" />
          <path
             style="opacity:1;fill:#000000;fill-opacity:1;fill-rule:nonzero;stroke:#fffffc;stroke-width:2.66576648;stroke-linecap:round;stroke-linejoin:round;stroke-miterlimit:4;stroke-dasharray:none;stroke-opacity:1;paint-order:normal"
             d="m 97.905807,232.18704 c 7.930853,0 15.861713,0 23.792563,0 0,6.16697 0,12.33393 0,18.5009 -7.93085,0 -15.86171,0 -23.792563,0 0,-6.16697 0,-12.33393 0,-18.5009 z"
             id="rect944"
             inkscape:connector-curvature="0" />
        </g>
        <g
           id="g831">
          <path
             style="opacity:1;fill:#ffffff;fill-opacity:1;fill-rule:nonzero;stroke:none;stroke-width:13.95688534;stroke-linecap:round;stroke-linejoin:round;stroke-miterlimit:4;stroke-dasharray:none;stroke-opacity:1;paint-order:normal"
             d="m 112.44793,242.16508 c 0.16808,2.97558 -4.56119,3.6213 -5.19525,0.70776 -0.98663,-2.92316 3.65752,-4.73887 4.9074,-1.9079 0.18874,0.36994 0.28821,0.78491 0.28785,1.20014 z"
             id="path956"
             inkscape:connector-curvature="0" />
          <path
             style="opacity:1;fill:#ffffff;fill-opacity:1;fill-rule:nonzero;stroke:#fffffc;stroke-width:2.29205608;stroke-linecap:round;stroke-linejoin:round;stroke-miterlimit:4;stroke-dasharray:none;stroke-opacity:1;paint-order:normal"
             d="m 109.6252,242.14001 c 0.63175,0.7342 0.53419,3.91496 0.0461,4.7268 -0.10563,-1.48286 -0.0168,-3.16695 -0.0461,-4.7268 z"
             id="rect991"
             inkscape:connector-curvature="0" />
        </g>
        <path
           style="opacity:1;fill:#000000;fill-opacity:1;fill-rule:nonzero;stroke:#fffffc;stroke-width:2.96976399;stroke-linecap:round;stroke-linejoin:round;stroke-miterlimit:4;stroke-dasharray:none;stroke-opacity:1;paint-order:normal"
           d="m 6.7821622,247.48477 c 25.7869208,0 51.5738428,0 77.3607638,0 0.851642,2.7538 -1.355553,2.44875 -3.384561,2.3219 -24.658734,0 -49.317469,0 -73.9762028,0 0,-0.77397 0,-1.54793 0,-2.3219 z"
           id="rect946"
           inkscape:connector-curvature="0" />
      </g>
    </g>
  </g>
</svg>
