<?xml version="1.0" encoding="UTF-8" standalone="no"?>
<!-- Created with Inkscape (http://www.inkscape.org/) -->

<svg
   xmlns:dc="http://purl.org/dc/elements/1.1/"
   xmlns:cc="http://creativecommons.org/ns#"
   xmlns:rdf="http://www.w3.org/1999/02/22-rdf-syntax-ns#"
   xmlns:svg="http://www.w3.org/2000/svg"
   xmlns="http://www.w3.org/2000/svg"
   xmlns:sodipodi="http://sodipodi.sourceforge.net/DTD/sodipodi-0.dtd"
   xmlns:inkscape="http://www.inkscape.org/namespaces/inkscape"
   id="svg1"
   sodipodi:docname="Vêtements de qualité.svg"
   viewBox="0 0 500 500"
   sodipodi:version="0.32"
   version="1.1"
   inkscape:version="0.92.4 (5da689c313, 2019-01-14)"
   width="500"
   height="500"
   inkscape:export-filename="/home/urai/Documents/Business/Boutiques/Catheaven/Images/Logos/Trust-Badges/Vêtements de qualité.png"
   inkscape:export-xdpi="300"
   inkscape:export-ydpi="300">
  <defs
     id="defs8" />
  <sodipodi:namedview
     id="base"
     bordercolor="#666666"
     inkscape:pageshadow="2"
     inkscape:window-y="0"
     pagecolor="#ffffff"
     inkscape:window-height="1015"
     inkscape:window-maximized="1"
     inkscape:zoom="1"
     inkscape:window-x="0"
     showgrid="false"
     borderopacity="1.0"
     inkscape:current-layer="g2776"
     inkscape:cx="399.20628"
     inkscape:cy="293.3929"
     inkscape:window-width="1920"
     inkscape:pageopacity="0.0" />
  <g
     id="g2776"
     transform="translate(-1.6805,300.50377)">
    <g
       id="g873"
       transform="matrix(2.5964682,0,0,2.5964682,-12.329685,-308.84256)">
      <path
         d="m 7.7955,97.974 c 2.4955,3.836 28.858,15.116 36.572,12.776 2.917,-2.91 2.647,-16.267 4.375,-19.683 4.223,13.283 -4.838,85.653 -5.104,96.973 11.251,7.87 95.171,7.03 114.9,2.35 3.03,-4.3 -7.29,-68 -6.26,-97.136 2,2.92 3.14,10.576 3.65,13.856 8.14,2.34 37.72,-4.38 39.91,-8.022 0.08,-7.293 -20.22,-63.437 -25.33,-66.354 -5.73,-4.943 -40.46,-16.901 -45.4,-22.351 -1.14,-0.6366 -2.04,-2.2485 -2.67,-3.1695 -5.7,2.625 -33.792,3.6525 -39.019,-0.4382 -1.263,1.5124 -1.13,2.4784 -3.03,3.3517 -3.645,0 -35.826,15.275 -46.538,23.912 -7.729,9.169 -27.4,59.291 -26.058,63.935 z"
         style="fill:#000000;fill-rule:evenodd"
         sodipodi:nodetypes="ccccccccccccccc"
         inkscape:connector-curvature="0"
         id="path2773" />
      <path
         d="m 83.031,4.5938 c -5.578,7.8692 -20.593,10.564 -29.864,16.897 -9.156,5.603 -21.16,8.951 -25.501,19.76 -8.88,18.034 -17.11,35.241 -21.885,54.811 3.106,9.338 16.747,10.858 25.065,14.628 2.798,0.73 8.589,2.37 12.269,1.51 2.966,-2.64 3.821,-7.78 5.318,-16.66 4.079,17.3 -5.396,65.86 -6.618,93.04 7.618,6.33 22.639,4.25 33.748,5.53 27.847,0.9 59.967,-0.5 85.747,-1.49 -1.16,-9.32 -2.53,-21.27 -2.32,-31.09 -1.8,-17.84 -4.87,-34.96 -5.78,-52.88 -0.58,-1.2 -0.41,-8.04 -0.8,-11.445 2.47,5.165 4.02,11.285 4.05,12.415 5.43,-0.96 23.35,-3.26 28.28,-4.28 5.22,-0.29 10.08,-0.95 12.84,-3.07 -0.1,-2.479 -1.57,-7.145 -2.59,-14.761 -6.18,-18.749 -12.25,-37.83 -21.99,-55.071 -9.11,-7.774 -22.37,-9.421 -32.97,-14.85 -9.34,-2.639 -12.53,-7.51 -18.93,-11.289 -11.79,3.2733 -24.261,4.589 -38.069,-1.7052 z m 0.938,3.8616 c 12.06,3.5376 25.291,3.0746 37.501,0.6071 8.5,9.0385 22.07,10.698 32.92,16.2 11.09,3.22 20.88,11.293 23.47,23.087 6.53,16.226 13.14,34.394 16.9,51.499 -11.27,4.972 -25.05,5.792 -37.38,5.272 1.17,-6.221 -7.29,-21.463 -7.2,-7.861 0.05,30.521 7.65,62.471 8.19,92.931 -30.25,2.22 -63.215,3.21 -93.649,1.27 -10.507,-0.56 -24.957,-2.05 -18.643,-16.48 2.096,-26.91 6.626,-54.25 5.043,-81.275 -5.158,-13.112 -5.843,10.375 -8.027,14.985 -11.97,-0.26 -25.133,-4.36 -35.054,-10.775 4.894,-19.798 13.913,-40.165 23.145,-58.315 5.994,-10.353 18.834,-13.413 28.569,-19.381 7.247,-4.786 17.822,-6.34 24.215,-11.764 z"
         style="fill:#000000;fill-rule:evenodd"
         sodipodi:nodetypes="ccccccccccccccccccccccccccccccccccccc"
         inkscape:connector-curvature="0"
         id="path909" />
      <g
         transform="translate(-2.6229768,-4.750004)"
         id="g866">
        <rect
           style="opacity:1;fill:#ffffff;fill-opacity:1;fill-rule:nonzero;stroke:none;stroke-width:9.78519726;stroke-linecap:round;stroke-linejoin:round;stroke-miterlimit:4;stroke-dasharray:none;stroke-opacity:1;paint-order:stroke fill markers"
           id="rect815"
           width="43"
           height="5"
           x="-2.6925364"
           y="131.9408"
           transform="rotate(-46.83863)" />
        <rect
           style="opacity:1;fill:#ffffff;fill-opacity:1;fill-rule:nonzero;stroke:none;stroke-width:9.78519726;stroke-linecap:round;stroke-linejoin:round;stroke-miterlimit:4;stroke-dasharray:none;stroke-opacity:1;paint-order:stroke fill markers"
           id="rect862"
           width="23"
           height="5"
           x="113.91512"
           y="-1.2210375"
           transform="rotate(42.706771)" />
      </g>
    </g>
  </g>
  <metadata
     id="metadata7">
    <rdf:RDF>
      <cc:Work>
        <dc:format>image/svg+xml</dc:format>
        <dc:type
           rdf:resource="http://purl.org/dc/dcmitype/StillImage" />
        <cc:license
           rdf:resource="http://creativecommons.org/publicdomain/zero/1.0/" />
        <dc:publisher>
          <cc:Agent
             rdf:about="http://openclipart.org/">
            <dc:title>Openclipart</dc:title>
          </cc:Agent>
        </dc:publisher>
        <dc:title></dc:title>
      </cc:Work>
      <cc:License
         rdf:about="http://creativecommons.org/publicdomain/zero/1.0/">
        <cc:permits
           rdf:resource="http://creativecommons.org/ns#Reproduction" />
        <cc:permits
           rdf:resource="http://creativecommons.org/ns#Distribution" />
        <cc:permits
           rdf:resource="http://creativecommons.org/ns#DerivativeWorks" />
      </cc:License>
    </rdf:RDF>
  </metadata>
</svg>
